<?xml version="1.0" encoding="UTF-8" standalone="no"?>
<!DOCTYPE svg  PUBLIC '-//W3C//DTD SVG 1.1//EN'  'http://www.w3.org/Graphics/SVG/1.1/DTD/svg11.dtd'>
<svg xmlns="http://www.w3.org/2000/svg" xmlns:xl="http://www.w3.org/1999/xlink" version="1.1" viewBox="0 0 470 366">
 <metadata xmlns:dc="http://purl.org/dc/elements/1.1/">
  <dc:date>2011-06-07 02:56Z</dc:date>
<!-- Produced by OmniGraffle Professional 5.2.3 --> </metadata>
 <defs>
  <marker id="FilledArrow_Marker" markerUnits="strokeWidth" color="black" orient="auto" markerWidth="10" overflow="visible" viewBox="-1 -4 10 8" markerHeight="8">
   <path stroke="currentColor" d="m8 0l-8-3v6z" fill="currentColor"/>
  </marker>
  <marker id="FilledArrow_Marker_2" markerUnits="strokeWidth" color="black" orient="auto" markerWidth="10" overflow="visible" viewBox="-9 -4 10 8" markerHeight="8">
   <path stroke="currentColor" d="m-8 0l8 3v-6z" fill="currentColor"/>
  </marker>
 </defs>
 <g fill="none">
  <title>Overview 9</title>
  <g>
   <title>Layer 1</title>
   <line stroke-linejoin="round" y2="149.9" marker-end="url(#FilledArrow_Marker)" marker-start="url(#FilledArrow_Marker_2)" x2="376" stroke="#000" stroke-linecap="round" y1="172.6" x1="376"/>
   <line stroke-linejoin="round" y2="116" marker-end="url(#FilledArrow_Marker)" x2="142.1" stroke="#000" stroke-linecap="round" y1="116" x1="98.346"/>
   <line stroke-linejoin="round" y2="116" marker-end="url(#FilledArrow_Marker)" x2="318.1" stroke="#000" stroke-linecap="round" y1="116" x1="248"/>
   <line stroke-linejoin="round" y2="79.542" marker-end="url(#FilledArrow_Marker)" x2="56" stroke="#000" stroke-linecap="round" y1="51" x1="56"/>
   <line stroke-linejoin="round" y2="174.1" marker-end="url(#FilledArrow_Marker)" marker-start="url(#FilledArrow_Marker_2)" x2="200" stroke="#000" stroke-linecap="round" y1="149.9" x1="200"/>
   <path d="m300 184h152c2.21 0 4 1.79 4 4v168c0 2.21-1.79 4-4 4h-152c-2.21 0-4-1.79-4-4v-168c0-2.21 1.79-4 4-4z" fill="#ffb7f8"/>
   <path stroke-linejoin="round" stroke="#6c235a" stroke-linecap="round" d="m300 184h152c2.21 0 4 1.79 4 4v168c0 2.21-1.79 4-4 4h-152c-2.21 0-4-1.79-4-4v0-168c0-2.21 1.79-4 4-4z" stroke-width="3"/>
   <text transform="translate(300 192)" fill="black">
    <tspan font-size="16" font-weight="bold" textLength="48.164062" y="15" x="51.91797" font-family="Bitstream Vera Sans Mono">index</tspan>
   </text>
   <path d="m384 307.2v-38.4c0-2.65 12.54-4.8 28-4.8s28 2.15 28 4.8v38.4c0 2.65-12.54 4.8-28 4.8s-28-2.15-28-4.8" fill="#e3e3e3"/>
   <path stroke-linejoin="round" stroke="#000" stroke-linecap="round" d="m384 307.2v-38.4c0-2.65 12.54-4.8 28-4.8s28 2.15 28 4.8v38.4c0 2.65-12.54 4.8-28 4.8s-28-2.15-28-4.8m0-38.4c0 2.65 12.54 4.8 28 4.8s28-2.15 28-4.8" stroke-width="3"/>
   <text transform="translate(389 280.9)" fill="black">
    <tspan font-size="16" font-weight="500" textLength="38.53125" y="15" x="3.734375" font-family="Bitstream Vera Sans Mono">disk</tspan>
   </text>
   <path d="m311.5 264h52.5c2.21 0 4 1.79 4 4v40c0 2.21-1.79 4-4 4h-52.5c-2.21 0-4-1.79-4-4v-40c0-2.21 1.79-4 4-4z" fill="#dad5fd"/>
   <path stroke-linejoin="round" stroke="#282b64" stroke-linecap="round" d="m311.5 264h52.5c2.21 0 4 1.79 4 4v40c0 2.21-1.79 4-4 4h-52.5c-2.21 0-4-1.79-4-4v0-40c0-2.21 1.79-4 4-4z" stroke-width="3"/>
   <text font-size="16" font-weight="500" transform="translate(312.5 269)" font-family="Bitstream Vera Sans Mono" fill="black">
    <tspan textLength="28.898438" y="15" x="15.6171875">fs</tspan>
    <tspan textLength="48.164062" y="34" x="1.16796875">cache</tspan>
   </text>
   <path d="m156 92h88c2.21 0 4 1.791 4 4v40c0 2.21-1.79 4-4 4h-88c-2.21 0-4-1.79-4-4v-40c0-2.209 1.79-4 4-4z" fill="#ffbfc1"/>
   <path stroke-linejoin="round" stroke="#6c161d" stroke-linecap="round" d="m156 92h88c2.21 0 4 1.791 4 4v40c0 2.21-1.79 4-4 4h-88c-2.21 0-4-1.79-4-4v0-40c0-2.209 1.79-4 4-4z" stroke-width="3"/>
   <text transform="translate(157 106.5)" fill="black">
    <tspan font-size="16" font-weight="500" textLength="38.53125" y="15" x="23.734375" font-family="Bitstream Vera Sans Mono">Solr</tspan>
   </text>
   <path d="m332 92h88c2.21 0 4 1.791 4 4v40c0 2.21-1.79 4-4 4h-88c-2.21 0-4-1.79-4-4v-40c0-2.209 1.79-4 4-4z" fill="#b2ffbf"/>
   <path stroke-linejoin="round" stroke="#1c673a" stroke-linecap="round" d="m332 92h88c2.21 0 4 1.791 4 4v40c0 2.21-1.79 4-4 4h-88c-2.21 0-4-1.79-4-4v0-40c0-2.209 1.79-4 4-4z" stroke-width="3"/>
   <text transform="translate(333 106.5)" fill="black">
    <tspan font-size="16" font-weight="500" textLength="57.796875" y="15" x="14.101513" font-family="Bitstream Vera Sans Mono">Lucene</tspan>
   </text>
   <path d="m20.516 119.01c-15.516-3.01-9.329-28.33 15.422-24.01 2.296-8.422 31.078-7.055 30.89 0 18.047-9.023 41.112 8.97 25.64 17.99 18.562 4.38-0.234 27.95-15.468 24.01-1.219 6.56-28.453 8.86-30.844 0-15.421 9.46-47.577-5.09-25.64-17.99z" fill="#e3e3e3"/>
   <path stroke-linejoin="round" stroke="#000" stroke-linecap="round" d="m20.516 119.01c-15.516-3.01-9.329-28.33 15.422-24.01 2.296-8.422 31.078-7.055 30.89 0 18.047-9.023 41.112 8.97 25.64 17.99 18.562 4.38-0.234 27.95-15.468 24.01-1.219 6.56-28.453 8.86-30.844 0-15.421 9.46-47.577-5.09-25.64-17.99z" stroke-width="3"/>
   <text transform="translate(27.4 106.5)" fill="black">
    <tspan font-size="16" font-weight="500" textLength="48.164062" y="15" x="4.5179672" font-family="Bitstream Vera Sans Mono">Jetty</tspan>
   </text>
   <rect y="16" x="16" height="35" fill="#efefbf" width="80"/>
   <path stroke-linejoin="round" stroke="#9d8c25" stroke-linecap="round" d="m16 16h80m0 35h-80" stroke-width="3"/>
   <text transform="translate(21 24)" fill="black">
    <tspan font-size="16" font-weight="500" textLength="48.164062" y="15" x="10.917969" font-family="Bitstream Vera Sans Mono">query</tspan>
   </text>
   <path d="m132 184h136c2.21 0 4 1.79 4 4v168c0 2.21-1.79 4-4 4h-136c-2.21 0-4-1.79-4-4v-168c0-2.21 1.79-4 4-4z" fill="#ffb7f8"/>
   <path stroke-linejoin="round" stroke="#6c235a" stroke-linecap="round" d="m132 184h136c2.21 0 4 1.79 4 4v168c0 2.21-1.79 4-4 4h-136c-2.21 0-4-1.79-4-4v0-168c0-2.21 1.79-4 4-4z" stroke-width="3"/>
   <text transform="translate(132 192)" fill="black">
    <tspan font-size="16" font-weight="bold" textLength="48.164062" y="15" x="43.91797" font-family="Bitstream Vera Sans Mono">cache</tspan>
   </text>
   <path d="m148 256h104c2.21 0 4 1.79 4 4v16c0 2.21-1.79 4-4 4h-104c-2.21 0-4-1.79-4-4v-16c0-2.21 1.79-4 4-4z" fill="#dad5fd"/>
   <path stroke-linejoin="round" stroke="#282b64" stroke-linecap="round" d="m148 256h104c2.21 0 4 1.79 4 4v16c0 2.21-1.79 4-4 4h-104c-2.21 0-4-1.79-4-4v0-16c0-2.21 1.79-4 4-4z" stroke-width="3"/>
   <text transform="translate(149 261)" fill="black">
    <tspan font-size="12" font-weight="500" textLength="79.470703" y="11" x="11.2646484" font-family="Bitstream Vera Sans Mono">filterCache</tspan>
   </text>
   <path d="m148 224h104c2.21 0 4 1.79 4 4v16c0 2.21-1.79 4-4 4h-104c-2.21 0-4-1.79-4-4v-16c0-2.21 1.79-4 4-4z" fill="#dad5fd"/>
   <path stroke-linejoin="round" stroke="#282b64" stroke-linecap="round" d="m148 224h104c2.21 0 4 1.79 4 4v16c0 2.21-1.79 4-4 4h-104c-2.21 0-4-1.79-4-4v0-16c0-2.21 1.79-4 4-4z" stroke-width="3"/>
   <text transform="translate(149 230.5)" fill="black">
    <tspan font-size="10" font-weight="500" textLength="96.328125" y="9" x="2.8359375" font-family="Bitstream Vera Sans Mono">queryResultCache</tspan>
   </text>
  </g>
 </g>
</svg>
